<?xml version="1.0" encoding="UTF-8"?>
<svg id="Layer_1" data-name="Layer 1" xmlns="http://www.w3.org/2000/svg" viewBox="0 0 512.02 504.83">
  <defs>
    <style>
      .cls-1 {
        fill: #d16708;
      }
    </style>
  </defs>
  <path class="cls-1" d="M426.67,0H85.33C38.27,0,0,38.27,0,85.33v256c0,47.06,38.27,85.33,85.33,85.33h62.36l79.98,67.35c8.15,7.23,18.37,10.82,28.52,10.82s19.86-3.48,27.56-10.33l82.09-67.84h60.84c47.06,0,85.33-38.27,85.33-85.33V85.33c0-47.06-38.27-85.33-85.33-85.33h-.02ZM469.33,341.33c0,23.53-19.14,42.67-42.67,42.67h-68.52c-4.95,0-9.77,1.73-13.59,4.89l-88.98,72.87-86.36-72.75c-3.86-3.24-8.73-5.01-13.76-5.01h-70.14c-23.53,0-42.67-19.14-42.67-42.67V85.33c0-23.53,19.14-42.67,42.67-42.67h341.33c23.53,0,42.67,19.14,42.67,42.67v256h.02ZM274.75,104.09l-121.75,121.75c-16.13,16.11-25,37.55-25,60.33v33.83c0,11.78,9.54,21.33,21.33,21.33h33.83c22.78,0,44.22-8.9,60.33-25l121.75-121.75c12.07-12.1,18.75-28.16,18.75-45.27s-6.68-33.17-18.75-45.25c-24.96-24.96-65.54-24.96-90.5,0v.02ZM335.08,164.42l-121.75,121.75c-8.06,8.06-18.77,12.5-30.17,12.5h-12.5v-12.5c0-11.22,4.57-22.23,12.5-30.17l121.75-121.75c8.34-8.32,21.82-8.32,30.17,0,4.03,4.01,6.25,9.37,6.25,15.08s-2.22,11.05-6.25,15.08h0Z"/>
</svg>