<?xml version="1.0" encoding="UTF-8"?>
<svg id="Layer_1" data-name="Layer 1" xmlns="http://www.w3.org/2000/svg" viewBox="0 0 512 512">
  <defs>
    <style>
      .cls-1 {
        fill: #d16708;
      }
    </style>
  </defs>
  <path class="cls-1" d="M135.45,234.67h-71.45c-11.78,0-21.33,9.55-21.33,21.33v64H0v-64c0-35.35,28.65-64,64-64h96.79c-11.16,12.43-19.77,26.92-25.34,42.67ZM448,192h-96.79c11.16,12.43,19.77,26.92,25.34,42.67h71.45c11.78,0,21.33,9.55,21.33,21.33v64h42.67v-64c0-35.35-28.65-64-64-64ZM341.33,277.33c0-47.13-38.21-85.33-85.33-85.33s-85.33,38.21-85.33,85.33,38.21,85.33,85.33,85.33,85.33-38.21,85.33-85.33ZM298.67,277.33c0,23.56-19.1,42.67-42.67,42.67s-42.67-19.1-42.67-42.67,19.1-42.67,42.67-42.67,42.67,19.1,42.67,42.67ZM384,448c0-35.35-28.65-64-64-64h-128c-35.35,0-64,28.65-64,64v64h42.67v-64c0-11.78,9.55-21.33,21.33-21.33h128c11.78,0,21.33,9.55,21.33,21.33v64h42.67v-64ZM469.33,85.33c0-47.13-38.21-85.33-85.33-85.33s-85.33,38.21-85.33,85.33,38.21,85.33,85.33,85.33,85.33-38.21,85.33-85.33ZM426.67,85.33c0,23.56-19.1,42.67-42.67,42.67s-42.67-19.1-42.67-42.67,19.1-42.67,42.67-42.67,42.67,19.1,42.67,42.67ZM213.33,85.33C213.33,38.21,175.13,0,128,0S42.67,38.21,42.67,85.33s38.21,85.33,85.33,85.33,85.33-38.21,85.33-85.33ZM170.67,85.33c0,23.56-19.1,42.67-42.67,42.67s-42.67-19.1-42.67-42.67,19.1-42.67,42.67-42.67,42.67,19.1,42.67,42.67Z"/>
</svg>