<?xml version="1.0" encoding="UTF-8"?>
<svg id="Outline" xmlns="http://www.w3.org/2000/svg" viewBox="0 0 512.21 450.05">
  <defs>
    <style>
      .cls-1 {
        fill: #d16708;
      }
    </style>
  </defs>
  <path class="cls-1" d="M373.44,0c-48.9.76-93.65,27.61-117.33,70.4C232.42,27.61,187.67.76,138.77,0,59.05,3.46-2.9,70.66.11,150.4.11,247.4,102.21,353.34,187.84,425.17c39.47,33.17,97.06,33.17,136.53,0,85.63-71.83,187.73-177.77,187.73-274.77C515.11,70.66,453.16,3.46,373.44,0ZM296.96,392.53c-23.61,19.88-58.1,19.88-81.71,0C105.64,300.57,42.77,212.33,42.77,150.4c-3.04-56.19,39.83-104.3,96-107.73,56.17,3.43,99.04,51.55,96,107.73,0,11.78,9.55,21.33,21.33,21.33s21.33-9.55,21.33-21.33c-3.04-56.19,39.83-104.3,96-107.73,56.17,3.43,99.04,51.55,96,107.73,0,61.93-62.87,150.17-172.48,242.05v.09Z"/>
</svg>