<?xml version="1.0" encoding="UTF-8"?>
<svg id="Layer_1" data-name="Layer 1" xmlns="http://www.w3.org/2000/svg" viewBox="0 0 512 505.8">
  <defs>
    <style>
      .cls-1 {
        fill: #d16708;
      }
    </style>
  </defs>
  <g id="_01_align_center" data-name=" 01 align center">
    <path class="cls-1" d="M284.54,10.95c-16.23-14.61-40.86-14.61-57.09,0L0,215.67v221.87c0,37.7,30.56,68.27,68.27,68.27h375.47c37.7,0,68.27-30.56,68.27-68.27h0v-221.87L284.54,10.95ZM320,463.07h-128v-107.22c0-35.35,28.65-64,64-64s64,28.65,64,64v107.22ZM469.33,437.47c0,14.14-11.46,25.6-25.6,25.6h-81.07v-107.22c0-58.91-47.76-106.67-106.67-106.67s-106.67,47.76-106.67,106.67v107.22h-81.07c-14.14,0-25.6-11.46-25.6-25.6h0v-202.82L256,42.66l213.33,192v202.82Z"/>
  </g>
</svg>