<?xml version="1.0" encoding="UTF-8"?>
<svg id="Outline" xmlns="http://www.w3.org/2000/svg" viewBox="0 0 511.92 512">
  <defs>
    <style>
      .cls-1 {
        fill: #d16708;
      }
    </style>
  </defs>
  <path class="cls-1" d="M487.02,195.67l-82.75-82.75c-8.47-8.19-21.98-7.95-30.17.52-7.98,8.27-7.98,21.37,0,29.64l82.75,82.75c2.46,2.51,4.61,5.3,6.4,8.32-.32,0-.58-.17-.9-.17h0l-334.59.68c-11.78,0-21.33,9.55-21.33,21.33s9.55,21.33,21.33,21.33h0l334.46-.68c.6,0,1.09-.3,1.66-.34-1.89,3.61-4.29,6.93-7.13,9.86l-82.75,82.75c-8.47,8.18-8.71,21.69-.52,30.17,8.18,8.47,21.69,8.71,30.17.52.18-.17.35-.35.52-.52l82.75-82.75c33.31-33.32,33.31-87.34,0-120.66h.09Z"/>
  <path class="cls-1" d="M149.33,469.33h-42.67c-35.35,0-64-28.65-64-64V106.67c0-35.35,28.65-64,64-64h42.67c11.78,0,21.33-9.55,21.33-21.33S161.12,0,149.33,0h-42.67C47.79.07.07,47.79,0,106.67v298.67c.07,58.88,47.79,106.6,106.67,106.67h42.67c11.78,0,21.33-9.55,21.33-21.33s-9.55-21.33-21.33-21.33Z"/>
</svg>