<?xml version="1.0" encoding="UTF-8"?>
<svg id="Outline" xmlns="http://www.w3.org/2000/svg" viewBox="0 0 384 512">
  <defs>
    <style>
      .cls-1 {
        fill: #d16708;
      }
    </style>
  </defs>
  <path class="cls-1" d="M192,256c70.69,0,128-57.31,128-128S262.69,0,192,0,64,57.31,64,128c.07,70.66,57.34,127.93,128,128ZM192,42.67c47.13,0,85.33,38.21,85.33,85.33s-38.21,85.33-85.33,85.33-85.33-38.21-85.33-85.33,38.21-85.33,85.33-85.33Z"/>
  <path class="cls-1" d="M192,298.67C86.01,298.78.12,384.68,0,490.67c0,11.78,9.55,21.33,21.33,21.33s21.33-9.55,21.33-21.33c0-82.47,66.86-149.33,149.33-149.33s149.33,66.86,149.33,149.33c0,11.78,9.55,21.33,21.33,21.33s21.33-9.55,21.33-21.33c-.12-105.99-86.01-191.88-192-192Z"/>
</svg>