<?xml version="1.0" encoding="UTF-8"?>
<svg id="Outline" xmlns="http://www.w3.org/2000/svg" viewBox="0 0 460.69 512">
  <defs>
    <style>
      .cls-1 {
        fill: #d16708;
      }
    </style>
  </defs>
  <path class="cls-1" d="M230.35,170.67c-47.13,0-85.33,38.21-85.33,85.33s38.21,85.33,85.33,85.33,85.33-38.21,85.33-85.33-38.21-85.33-85.33-85.33h0ZM230.35,298.67c-23.56,0-42.67-19.1-42.67-42.67s19.1-42.67,42.67-42.67,42.67,19.1,42.67,42.67-19.1,42.67-42.67,42.67h0Z"/>
  <path class="cls-1" d="M428.62,296.53l-9.47-5.46c4.26-23.2,4.26-46.99,0-70.19l9.47-5.46c30.63-17.67,41.14-56.83,23.47-87.47-17.67-30.63-56.83-41.14-87.47-23.47l-9.49,5.48c-17.93-15.32-38.54-27.19-60.78-35.03v-10.94c0-35.34-28.65-63.99-64-63.99s-64,28.65-64,64v10.94c-22.24,7.86-42.84,19.77-60.76,35.11l-9.54-5.53c-30.63-17.67-69.79-7.17-87.47,23.47-17.67,30.63-7.17,69.79,23.47,87.47h0l9.47,5.46c-4.26,23.2-4.26,46.99,0,70.19l-9.47,5.46c-30.63,17.67-41.14,56.83-23.47,87.47s56.83,41.14,87.47,23.47h0l9.49-5.48c17.94,15.32,38.55,27.2,60.8,35.03v10.94c0,35.35,28.65,64,64,64s64-28.65,64-64v-10.94c22.24-7.86,42.84-19.77,60.76-35.11l9.54,5.5c30.63,17.67,69.79,7.17,87.47-23.47,17.67-30.63,7.17-69.79-23.47-87.47h0l-.02.02h0ZM374.26,215.98c7.22,26.18,7.22,53.82,0,80-2.59,9.37,1.48,19.31,9.9,24.17l23.13,13.35c10.21,5.89,13.71,18.94,7.82,29.15-5.89,10.21-18.94,13.71-29.15,7.82l-23.17-13.4c-8.43-4.88-19.1-3.43-25.92,3.52-18.99,19.38-42.91,33.22-69.18,40-9.43,2.43-16.03,10.93-16.02,20.67v26.73c0,11.78-9.55,21.33-21.33,21.33s-21.33-9.55-21.33-21.33v-26.71c0-9.74-6.59-18.25-16.02-20.67-26.28-6.81-50.19-20.67-69.16-40.09-6.82-6.95-17.49-8.4-25.92-3.52l-23.13,13.38c-10.16,5.96-23.23,2.55-29.19-7.62-5.96-10.16-2.55-23.23,7.62-29.19.08-.05.16-.09.24-.14l23.13-13.35c8.42-4.86,12.49-14.8,9.9-24.17-7.22-26.18-7.22-53.82,0-80,2.55-9.35-1.53-19.24-9.92-24.09l-23.13-13.35c-10.21-5.89-13.71-18.94-7.82-29.15,5.89-10.21,18.94-13.71,29.15-7.82l23.17,13.4c8.41,4.89,19.06,3.48,25.9-3.43,18.99-19.38,42.91-33.22,69.18-40,9.46-2.43,16.07-10.99,16.02-20.76v-26.71c0-11.78,9.55-21.33,21.33-21.33s21.33,9.55,21.33,21.33v26.71c0,9.74,6.59,18.25,16.02,20.67,26.28,6.81,50.21,20.67,69.18,40.09,6.82,6.95,17.49,8.4,25.92,3.52l23.13-13.38c10.16-5.96,23.23-2.55,29.19,7.61s2.55,23.23-7.61,29.19c-.08.05-.16.09-.25.14l-23.13,13.35c-8.38,4.86-12.43,14.75-9.88,24.09v-.02h0Z"/>
</svg>