<?xml version="1.0" encoding="UTF-8"?>
<svg id="Outline" xmlns="http://www.w3.org/2000/svg" viewBox="0 0 499.44 512">
  <defs>
    <style>
      .cls-1 {
        fill: #d16708;
      }
    </style>
  </defs>
  <path class="cls-1" d="M484.54,86.98c-12.15-14.58-30.15-23-49.13-22.98H90.5l-.9-7.49C85.8,24.3,58.51.02,26.07,0h-4.74C9.55,0,0,9.55,0,21.33s9.55,21.33,21.33,21.33h4.74c10.82,0,19.92,8.1,21.18,18.84l29.35,249.6c6.31,53.73,51.84,94.23,105.94,94.23h222.78c11.78,0,21.33-9.55,21.33-21.33s-9.55-21.33-21.33-21.33h-222.78c-27.06-.08-51.14-17.16-60.16-42.67h254.29c51.61,0,95.83-36.95,104.98-87.74l16.75-92.89c3.38-18.66-1.7-37.85-13.87-52.39ZM456.53,131.8l-16.77,92.89c-5.5,30.51-32.08,52.7-63.08,52.65H115.61l-20.07-170.67h339.88c11.78-.07,21.39,9.42,21.46,21.21,0,1.32-.11,2.63-.34,3.93Z"/>
  <circle class="cls-1" cx="149.33" cy="469.33" r="42.67"/>
  <circle class="cls-1" cx="362.67" cy="469.33" r="42.67"/>
</svg>