<?xml version="1.0" encoding="UTF-8"?>
<svg id="Outline" xmlns="http://www.w3.org/2000/svg" viewBox="0 0 512 341.33">
  <defs>
    <style>
      .cls-1 {
        fill: #353535;
      }
    </style>
  </defs>
  <path class="cls-1" d="M21.33,149.33h469.33c11.78,0,21.33,9.55,21.33,21.33h0c0,11.78-9.55,21.33-21.33,21.33H21.33c-11.78,0-21.33-9.55-21.33-21.33h0c0-11.78,9.55-21.33,21.33-21.33Z"/>
  <path class="cls-1" d="M21.33,0h469.33c11.78,0,21.33,9.55,21.33,21.33h0c0,11.78-9.55,21.33-21.33,21.33H21.33C9.55,42.67,0,33.12,0,21.33h0C0,9.55,9.55,0,21.33,0Z"/>
  <path class="cls-1" d="M21.33,298.67h469.33c11.78,0,21.33,9.55,21.33,21.33h0c0,11.78-9.55,21.33-21.33,21.33H21.33c-11.78,0-21.33-9.55-21.33-21.33h0c0-11.78,9.55-21.33,21.33-21.33Z"/>
</svg>