<?xml version="1.0" encoding="UTF-8"?>
<svg id="Layer_1" data-name="Layer 1" xmlns="http://www.w3.org/2000/svg" viewBox="0 0 512 512">
  <defs>
    <style>
      .cls-1 {
        fill: #353535;
      }
    </style>
  </defs>
  <path class="cls-1" d="M352,0c-89.73,0-160,42.18-160,96v55.19c-10.3-1.22-21.01-1.86-32-1.86C70.27,149.33,0,191.51,0,245.33v170.67c0,53.82,70.27,96,160,96,72.68,0,132.61-27.67,152.75-66.79,12.76,1.86,25.9,2.79,39.25,2.79,89.73,0,160-42.18,160-96V96C512,42.18,441.73,0,352,0ZM469.33,266.67c0,25.17-50.18,53.33-117.33,53.33-10.92,0-21.63-.75-32-2.2v-42.33c10.45,1.22,21.16,1.86,32,1.86,46.81,0,88.32-11.48,117.33-30.1v19.43ZM42.67,311.23c29.01,18.62,70.53,30.1,117.33,30.1s88.32-11.48,117.33-30.1v19.43c0,25.17-50.18,53.33-117.33,53.33s-117.33-28.16-117.33-53.33v-19.43ZM469.33,181.33c0,25.17-50.18,53.33-117.33,53.33-11.41,0-22.61-.81-33.41-2.39-4.12-18.92-17.07-35.93-36.39-49.56,20.99,5.97,44.63,9.28,69.8,9.28,46.81,0,88.32-11.48,117.33-30.1v19.43ZM352,42.67c67.16,0,117.33,28.16,117.33,53.33s-50.18,53.33-117.33,53.33-117.33-28.16-117.33-53.33,50.18-53.33,117.33-53.33ZM160,192c67.16,0,117.33,28.16,117.33,53.33s-50.18,53.33-117.33,53.33-117.33-28.16-117.33-53.33,50.18-53.33,117.33-53.33ZM160,469.33c-67.16,0-117.33-28.16-117.33-53.33v-19.43c29.01,18.62,70.53,30.1,117.33,30.1s88.32-11.48,117.33-30.1v19.43c0,25.17-50.18,53.33-117.33,53.33ZM352,405.33c-10.92,0-21.63-.75-32-2.2v-42.33c10.45,1.22,21.16,1.86,32,1.86,46.81,0,88.32-11.48,117.33-30.1v19.43c0,25.17-50.18,53.33-117.33,53.33Z"/>
</svg>