<?xml version="1.0" encoding="UTF-8"?>
<svg id="Capa_1" data-name="Capa 1" xmlns="http://www.w3.org/2000/svg" viewBox="0 0 512 435.97">
  <defs>
    <style>
      .cls-1 {
        fill: #353535;
      }
    </style>
  </defs>
  <path id="Path_2525" data-name="Path 2525" class="cls-1" d="M490.71,422.45h4.84l-9.28-14.04h0c5.67,0,8.68-3.61,8.73-8.02,0-.17,0-.36-.02-.53,0-6.02-3.63-8.9-11.07-8.9h-12.03v31.49h4.52v-13.72h5.57l8.75,13.72ZM481.64,405.17h-5.25v-10.65h6.66c3.43,0,7.36.55,7.36,5.06,0,5.16-3.97,5.59-8.79,5.59"/>
  <path id="Path_2520" data-name="Path 2520" class="cls-1" d="M368.87,368.88h-64.15v-100.46c0-23.96-.43-54.78-33.37-54.78s-38.53,26.09-38.53,53.06v102.19h-64.13v-206.59h61.59v28.22h.85c12.57-21.46,35.9-34.28,60.76-33.37,65.02,0,76.99,42.77,76.99,98.39l-.02,113.34ZM96.32,134.04c-20.57,0-37.23-16.66-37.23-37.23s16.66-37.23,37.23-37.23,37.23,16.66,37.23,37.23c0,20.57-16.66,37.23-37.23,37.23h0M128.38,368.88h-64.21v-206.59h64.21v206.59ZM400.85.02H31.94C14.51-.17.21,13.81,0,31.23v370.43c.21,17.45,14.51,31.42,31.94,31.23h368.92c17.47.21,31.83-13.76,32.06-31.23V31.21C432.66,13.74,418.3-.23,400.85,0"/>
  <path id="Path_2526" data-name="Path 2526" class="cls-1" d="M482.2,376.94c-16.3.15-29.4,13.5-29.23,29.8.15,16.3,13.5,29.4,29.8,29.23,16.3-.15,29.4-13.5,29.23-29.8-.15-16.09-13.16-29.08-29.23-29.23h-.58M482.88,432.58c-14.29.23-26.75-11.14-26.99-25.43s11.16-26.07,25.45-26.3,26.07,11.16,26.3,25.45v.43c.3,13.97-10.79,25.56-24.77,25.86h-.66"/>
</svg>