<?xml version="1.0" encoding="UTF-8"?>
<svg id="Outline" xmlns="http://www.w3.org/2000/svg" viewBox="0 0 298.69 153.03">
  <defs>
    <style>
      .cls-1 {
        fill: #353535;
      }
    </style>
  </defs>
  <path class="cls-1" d="M6.2,146.72c8.3,8.37,21.8,8.42,30.17.12.04-.04.08-.08.12-.12l97.71-97.71c8.3-8.37,21.8-8.42,30.17-.12.04.04.08.08.12.12l97.71,97.71c8.3,8.37,21.8,8.42,30.17.12.04-.04.08-.08.12-.12,8.27-8.32,8.27-21.76,0-30.08L194.58,18.72c-24.99-24.96-65.47-24.96-90.45,0L6.2,116.64c-8.27,8.32-8.27,21.76,0,30.08Z"/>
</svg>