<?xml version="1.0" encoding="UTF-8"?>
<svg id="Layer_1" data-name="Layer 1" xmlns="http://www.w3.org/2000/svg" viewBox="0 0 512.01 504.83">
  <defs>
    <style>
      .cls-1 {
        fill: #fff;
      }
    </style>
  </defs>
  <path class="cls-1" d="M288.01,224c0,17.66-14.34,32-32,32s-32-14.34-32-32,14.34-32,32-32,32,14.34,32,32ZM362.68,192c-17.66,0-32,14.34-32,32s14.34,32,32,32,32-14.34,32-32-14.34-32-32-32ZM149.34,192c-17.66,0-32,14.34-32,32s14.34,32,32,32,32-14.34,32-32-14.34-32-32-32ZM512.01,85.33v256c0,47.06-38.27,85.33-85.33,85.33h-60.84l-82.09,67.84c-7.7,6.87-17.58,10.33-27.56,10.33s-20.37-3.58-28.52-10.82l-79.98-67.35h-62.36c-47.06,0-85.33-38.27-85.33-85.33V85.33C0,38.27,38.28,0,85.34,0h341.33c47.06,0,85.33,38.27,85.33,85.33h.01ZM469.34,85.33c0-23.53-19.14-42.67-42.67-42.67H85.34c-23.53,0-42.67,19.14-42.67,42.67v256c0,23.53,19.14,42.67,42.67,42.67h70.14c5.01,0,9.9,1.77,13.76,5.01l86.36,72.75,88.98-72.87c3.82-3.16,8.62-4.89,13.59-4.89h68.52c23.53,0,42.67-19.14,42.67-42.67V85.33h-.02Z"/>
</svg>