<?xml version="1.0" encoding="UTF-8"?>
<svg id="Layer_1" data-name="Layer 1" xmlns="http://www.w3.org/2000/svg" viewBox="0 0 512 512">
  <defs>
    <style>
      .cls-1 {
        fill: #d16708;
      }
    </style>
  </defs>
  <path class="cls-1" d="M321.94,341.33c140.16-.77,190.06-75.01,190.06-138.67-.03-35.16-24.59-65.54-58.97-72.94,2.9-8.26,5.42-15.83,7.1-21.57,7.55-25.31,2.59-52.71-13.35-73.77C430.71,12.67,405.25-.11,378.22,0h-244.44c-27.03-.11-52.49,12.66-68.57,34.39-15.95,21.06-20.91,48.46-13.35,73.77,1.69,5.74,4.27,13.31,7.1,21.57C24.59,137.12.03,167.5,0,202.67c0,63.66,49.9,137.9,190.06,138.67,1.25,6.48,1.9,13.05,1.94,19.65v65.69c1.42,22.14-15.37,41.24-37.51,42.67-1.72.11-3.44.11-5.16,0h-21.33c-11.78,0-21.33,9.55-21.33,21.33s9.55,21.33,21.33,21.33h256c11.78,0,21.33-9.55,21.33-21.33s-9.55-21.33-21.33-21.33h-21.16c-22.16,1.49-41.33-15.26-42.83-37.42-.12-1.75-.12-3.5-.01-5.25v-65.71c.05-6.59.7-13.16,1.94-19.63ZM437.33,170.67c17.67,0,32,14.33,32,32,0,43.39-34.33,89.6-128.77,95.36,4.72-6.45,10.18-12.32,16.26-17.51,34.01-30.63,61.11-68.15,79.51-110.06.34.02.64.21,1,.21ZM42.67,202.67c0-17.67,14.33-32,32-32,.36,0,.66-.19,1-.21,18.4,41.91,45.5,79.42,79.51,110.06,6.08,5.19,11.53,11.07,16.26,17.51-94.44-5.76-128.77-51.97-128.77-95.36ZM224.28,469.33c7.05-13.1,10.63-27.79,10.39-42.67v-65.69c.15-43.44-18.82-84.76-51.86-112.96-43.38-41.46-74.53-94.05-90.03-152.02-3.69-12.41-1.24-25.84,6.61-36.14,8.07-10.88,20.84-17.27,34.39-17.19h244.44c13.56-.05,26.34,6.37,34.39,17.28,7.85,10.3,10.31,23.73,6.61,36.14-15.52,57.94-46.66,110.5-90.03,151.94-33.04,28.2-52.01,69.5-51.86,112.94v65.71c-.24,14.88,3.34,29.57,10.39,42.67h-63.45Z"/>
</svg>