<?xml version="1.0" encoding="UTF-8"?>
<svg id="Outline" xmlns="http://www.w3.org/2000/svg" viewBox="0 0 153.03 298.68">
  <defs>
    <style>
      .cls-1 {
        fill: #d16708;
      }
    </style>
  </defs>
  <path class="cls-1" d="M48.8,164.5c-8.37-8.3-8.42-21.8-.12-30.17.04-.04.08-.08.12-.12l97.92-97.71c8.37-8.3,8.42-21.8.12-30.17-.04-.04-.08-.08-.12-.12-8.32-8.27-21.76-8.27-30.08,0L18.72,104.12c-24.96,24.99-24.96,65.47,0,90.45l97.92,97.92c3.97,3.94,9.34,6.16,14.93,6.19,5.67.03,11.12-2.19,15.15-6.19,8.37-8.3,8.42-21.8.12-30.17-.04-.04-.08-.08-.12-.12l-97.92-97.71Z"/>
</svg>