<?xml version="1.0" encoding="UTF-8"?>
<svg id="Layer_1" data-name="Layer 1" xmlns="http://www.w3.org/2000/svg" viewBox="0 0 488.01 512.27">
  <defs>
    <style>
      .cls-1 {
        fill: #d16708;
      }
    </style>
  </defs>
  <g id="_01_align_center" data-name=" 01 align center">
    <path class="cls-1" d="M485.67,345.74l-55.47-199.91C400.89,39.99,291.33-22.05,185.5,7.26,114.61,26.9,60.35,84.06,44.44,155.87L1.53,348.94c-7.66,34.51,14.11,68.69,48.61,76.35,4.55,1.01,9.19,1.52,13.85,1.52h76.95c11.72,57.73,68.03,95.03,125.76,83.31,41.98-8.52,74.78-41.33,83.31-83.31h74.03c35.35-.02,63.99-28.68,63.97-64.03,0-5.76-.78-11.49-2.32-17.04h-.02ZM245.48,469.47c-27.02-.11-51.07-17.19-60.07-42.67h120.15c-9.01,25.48-33.05,42.55-60.07,42.67ZM441,375.71c-4.04,5.35-10.37,8.48-17.07,8.43H64c-11.78,0-21.33-9.55-21.33-21.34,0-1.56.17-3.11.51-4.63l42.9-193.07c18.72-84.2,102.15-137.28,186.36-118.56,56.31,12.52,101.13,55.05,116.58,110.63l55.47,199.91c1.84,6.41.55,13.31-3.48,18.62Z"/>
  </g>
</svg>