<?xml version="1.0" encoding="UTF-8"?>
<svg id="Outline" xmlns="http://www.w3.org/2000/svg" viewBox="0 0 512 512">
  <defs>
    <style>
      .cls-1 {
        fill: #d16708;
      }
    </style>
  </defs>
  <path class="cls-1" d="M149.33,0h-64C38.21,0,0,38.21,0,85.33v64c0,47.13,38.21,85.33,85.33,85.33h64c47.13,0,85.33-38.21,85.33-85.33v-64C234.67,38.21,196.46,0,149.33,0ZM192,149.33c0,23.56-19.1,42.67-42.67,42.67h-64c-23.56,0-42.67-19.1-42.67-42.67v-64c0-23.56,19.1-42.67,42.67-42.67h64c23.56,0,42.67,19.1,42.67,42.67v64Z"/>
  <path class="cls-1" d="M426.67,0h-64c-47.13,0-85.33,38.21-85.33,85.33v64c0,47.13,38.21,85.33,85.33,85.33h64c47.13,0,85.33-38.21,85.33-85.33v-64c0-47.13-38.21-85.33-85.33-85.33ZM469.33,149.33c0,23.56-19.1,42.67-42.67,42.67h-64c-23.56,0-42.67-19.1-42.67-42.67v-64c0-23.56,19.1-42.67,42.67-42.67h64c23.56,0,42.67,19.1,42.67,42.67v64Z"/>
  <path class="cls-1" d="M149.33,277.33h-64c-47.13,0-85.33,38.21-85.33,85.33v64c0,47.13,38.21,85.33,85.33,85.33h64c47.13,0,85.33-38.21,85.33-85.33v-64c0-47.13-38.21-85.33-85.33-85.33ZM192,426.67c0,23.56-19.1,42.67-42.67,42.67h-64c-23.56,0-42.67-19.1-42.67-42.67v-64c0-23.56,19.1-42.67,42.67-42.67h64c23.56,0,42.67,19.1,42.67,42.67v64Z"/>
  <path class="cls-1" d="M426.67,277.33h-64c-47.13,0-85.33,38.21-85.33,85.33v64c0,47.13,38.21,85.33,85.33,85.33h64c47.13,0,85.33-38.21,85.33-85.33v-64c0-47.13-38.21-85.33-85.33-85.33ZM469.33,426.67c0,23.56-19.1,42.67-42.67,42.67h-64c-23.56,0-42.67-19.1-42.67-42.67v-64c0-23.56,19.1-42.67,42.67-42.67h64c23.56,0,42.67,19.1,42.67,42.67v64Z"/>
</svg>